<svg xmlns="http://www.w3.org/2000/svg" xmlns:xlink="http://www.w3.org/1999/xlink" width="48" height="48" viewBox="0 0 48 48">
  <defs>
    <clipPath id="clip-npm_48px">
      <rect width="48" height="48"/>
    </clipPath>
  </defs>
  <g id="npm_48px" clip-path="url(#clip-npm_48px)">
    <g id="Group_3850" data-name="Group 3850" transform="translate(-388.319 -351.445)" style="isolation: isolate">
      <path id="Path_1925" data-name="Path 1925" d="M388.319,383.985v-16c.094,0,.187.009.281.009h47.719v15.978H412.345a.306.306,0,0,0-.021.069q0,1.3.007,2.6H401.675q0-1.217,0-2.435c0-.239,0-.239-.249-.239h-12.9C388.455,383.971,388.387,383.98,388.319,383.985Zm37.325-10.631v.265q0,3.747,0,7.493c0,.163.032.228.215.225.769-.011,1.538,0,2.307-.005.06,0,.12-.007.2-.012v-7.977h2.357c.263,0,.264,0,.264.263q0,3.719,0,7.437c0,.091.009.183.014.275h2.679V370.654H417.665v10.679h5.1c.266,0,.266,0,.266-.26q0-3.737,0-7.475c0-.079,0-.157,0-.245ZM415,381.331V370.646c-.067,0-.122-.009-.177-.009q-5.157,0-10.314,0c-.166,0-.211.046-.21.21q.006,6.47,0,12.94c0,.158.033.215.206.215,1.663-.007,3.325,0,4.988,0,.059,0,.119-.006.194-.01v-2.653Zm-16.031-7.976v.267q0,3.746,0,7.492c0,.166.036.225.215.223q1.144-.015,2.288,0c.174,0,.219-.048.219-.219q-.007-5.132,0-10.264c0-.066-.006-.133-.01-.2H390.99v10.684h5.1c.261,0,.261,0,.261-.266q0-3.727,0-7.455v-.257Z" transform="translate(0 0)" fill="#cb3837" style="isolation: isolate"/>
      <path id="Path_1926" data-name="Path 1926" d="M960.152,516.344H957.53v-5.253h2.622Z" transform="translate(-547.841 -137.732)" fill="#cb3837" style="isolation: isolate"/>
    </g>
  </g>
</svg>
