<svg xmlns="http://www.w3.org/2000/svg" xmlns:xlink="http://www.w3.org/1999/xlink" width="30" height="30" viewBox="0 0 30 30">
  <defs>
    <clipPath id="clip-path">
      <rect id="Rectangle_484" data-name="Rectangle 484" width="30" height="30" fill="#adadad"/>
    </clipPath>
  </defs>
  <g id="task_explorer_light" clip-path="url(#clip-path)">
    <g id="Group_3713" data-name="Group 3713" transform="translate(-0.139 0.239)">
      <path id="Path_1756" data-name="Path 1756" d="M18.1,23.731l3.535,3.638L28.7,19.78" fill="none" stroke="#adadad" stroke-linecap="round" stroke-linejoin="round" stroke-width="2"/>
      <g id="Group_3711" data-name="Group 3711">
        <rect id="Rectangle_507" data-name="Rectangle 507" width="24.384" height="28.739" rx="3.483" transform="translate(2.139 0.761)" fill="none"/>
      </g>
      <g id="Group_3712" data-name="Group 3712" transform="translate(0 -1)">
        <path id="Path_1784" data-name="Path 1784" d="M22.368,14.509,19.155,12a1,1,0,1,0-1.232,1.576l2.194,1.715L17.932,16.96a1,1,0,1,0,1.214,1.589l3.213-2.458a1,1,0,0,0,.009-1.582Z" fill="#adadad"/>
        <path id="Path_1785" data-name="Path 1785" d="M10.688,12.17a1,1,0,0,0-1.4-.17L6.071,14.509a1,1,0,0,0,.009,1.582l3.213,2.458a1,1,0,0,0,1.215-1.589L8.322,15.289l2.2-1.715A1,1,0,0,0,10.688,12.17Z" fill="#adadad"/>
        <path id="Path_1786" data-name="Path 1786" d="M15.054,10.827a1.008,1.008,0,0,0-1.236.688L11.81,18.57a1,1,0,1,0,1.923.548l2.009-7.055A1,1,0,0,0,15.054,10.827Z" fill="#adadad"/>
      </g>
      <path id="Path_1787" data-name="Path 1787" d="M16.492,27.455H5.623a1.44,1.44,0,0,1-1.438-1.438V4.245A1.44,1.44,0,0,1,5.623,2.806H23.04a1.441,1.441,0,0,1,1.439,1.439V18.819l1.486-1.595a3.69,3.69,0,0,1,.514-.451V4.245A3.443,3.443,0,0,0,23.04.806H5.623A3.443,3.443,0,0,0,2.185,4.245V26.017a3.442,3.442,0,0,0,3.438,3.438H18.435Z" fill="#adadad"/>
    </g>
  </g>
</svg>
